<svg width="40" height="25" viewBox="0 0 40 25" fill="none" xmlns="http://www.w3.org/2000/svg">
<path d="M32.7158 9.00514L31.0364 6.72475C28.5145 3.35524 26.0968 1.78906 19.9914 1.78906H19.525C13.4318 1.78906 11.0142 3.35524 8.47994 6.72475L6.96226 8.89453M6.99504 20.4524V21.9374C6.99504 22.148 6.95414 22.3566 6.87489 22.5511C6.79564 22.7457 6.67946 22.9225 6.53303 23.0714C6.38659 23.2203 6.21276 23.3384 6.02143 23.419C5.8301 23.4996 5.6251 23.5411 5.418 23.5411H3.71827C3.51118 23.5411 3.30618 23.4996 3.11485 23.419C2.92352 23.3384 2.74954 23.2203 2.6031 23.0714C2.45666 22.9225 2.34064 22.7457 2.26139 22.5511C2.18214 22.3566 2.14124 22.148 2.14124 21.9374V17.5259M32.3864 20.4524V21.9374C32.3864 22.3617 32.5517 22.7686 32.8461 23.0692C33.1406 23.3697 33.5401 23.5394 33.9573 23.5411H35.6263C36.0435 23.5394 36.443 23.3697 36.7374 23.0692C37.0318 22.7686 37.1972 22.3617 37.1972 21.9374V17.5259M7.76817 11.7603C7.76817 11.7603 6.61453 14.9301 10.1796 15.4605M31.7359 11.7603C31.7359 11.7603 32.8957 14.9301 29.3244 15.4605M15.9967 15.4605H23.0288M16.6287 18.2559H22.3967M7.32027 8.20358C7.32027 9.65746 1 9.65746 1 8.20358C1 6.7497 2.41126 5.5579 4.16006 5.5579C5.90886 5.5579 7.32027 6.72474 7.32027 8.20358ZM32.2514 8.20358C32.2514 9.65746 38.5717 9.65746 38.5717 8.20358C38.5717 6.7497 37.1603 5.5579 35.4115 5.5579C33.6627 5.5579 32.2514 6.72474 32.2514 8.20358ZM34.8961 10.5123C33.8297 9.35096 32.358 8.66096 30.7971 8.59045H8.57806C7.01739 8.66228 5.5463 9.35206 4.47915 10.5123C2.74875 12.3219 2.2149 14.8365 2.16581 17.2825C2.13065 17.8766 2.24693 18.4698 2.50333 19.0047C2.86536 19.6911 11.7076 21.5818 19.6846 21.5818C27.6616 21.5818 36.5467 19.61 36.8658 19.0047C37.1203 18.4693 37.2345 17.876 37.1972 17.2825C37.1604 14.8365 36.6265 12.3406 34.8961 10.5123Z" stroke="#052224" stroke-width="1.97746" stroke-linecap="round" stroke-linejoin="round"/>
</svg>
