<svg width="40" height="38" viewBox="0 0 40 38" fill="none" xmlns="http://www.w3.org/2000/svg">
<path d="M26.8588 18.3796L16.0912 25.29C15.8865 25.4214 15.6256 25.427 15.4155 25.3046L1.91504 17.4415C1.49675 17.1978 1.48387 16.5981 1.89133 16.3368L23.909 2.21375C24.1135 2.08254 24.3743 2.07689 24.5844 2.19913L38.0846 10.0561C38.503 10.2996 38.516 10.8994 38.1086 11.1609L31.7519 15.2396M26.8654 23.868L16.091 30.7787C15.8865 30.9099 15.6257 30.9156 15.4156 30.7933L1.91487 22.936C1.49657 22.6926 1.4834 22.093 1.8906 21.8314L5.48752 19.5208M34.5125 13.4716L38.0843 15.5509C38.5027 15.7945 38.5156 16.3944 38.1079 16.6557L31.6931 20.7676M34.7741 18.7886L38.1272 20.8666C38.532 21.1174 38.5366 21.7048 38.1358 21.962L16.0912 36.1086C15.8865 36.24 15.6256 36.2456 15.4155 36.1232L1.91504 28.26C1.49674 28.0164 1.48387 27.4167 1.89132 27.1554L5.35015 24.9367M17.2842 6.88302L31.3713 15.0852C31.5705 15.2012 31.6931 15.4143 31.6931 15.6449V25.7374C31.6931 25.9578 31.5809 26.1631 31.3954 26.2823L27.8629 28.5509C27.4319 28.8277 26.8654 28.5182 26.8654 28.006V18.7517C26.8654 18.5213 26.7429 18.3082 26.5438 18.1922L13.0283 10.3168C12.6102 10.0732 12.5973 9.47382 13.0044 9.21235L16.6084 6.89776C16.8131 6.76634 17.0741 6.76065 17.2842 6.88302Z" stroke="#093030" stroke-width="2.59038" stroke-linecap="round" stroke-linejoin="round"/>
</svg>
