<svg width="52" height="54" viewBox="0 0 52 54" fill="none" xmlns="http://www.w3.org/2000/svg">
<path d="M26.0413 12.2881L27.5869 13.6063M31.2235 16.7078L34.9713 19.9041M38.9513 23.2984L40.2786 24.4305M48.9338 22.1448L24.5369 50.7512C24.2369 51.1029 23.7882 51.3028 23.2897 51.3072C22.7911 51.3116 22.2834 51.12 21.8784 50.7745L15.8326 45.6184C16.5075 44.827 16.7926 43.7593 16.6254 42.6501C16.4581 41.5408 15.8521 40.481 14.9407 39.7036C14.4895 39.3171 13.9764 39.0114 13.4309 38.8044C12.8854 38.5974 12.3184 38.4932 11.7619 38.4974C11.2054 38.5016 10.6706 38.6143 10.1882 38.829C9.70573 39.0438 9.28497 39.3562 8.95023 39.7487L2.86805 34.5615C2.46296 34.2161 2.19358 33.745 2.11925 33.252C2.04491 32.759 2.17176 32.2846 2.47171 31.9329L26.8687 3.32654C27.1686 2.97483 27.6171 2.77464 28.1157 2.77023C28.6142 2.76582 29.1219 2.95747 29.527 3.30295L35.5728 8.4591C35.238 8.8516 34.9958 9.31645 34.8599 9.82675C34.724 10.3371 34.6972 10.8829 34.7809 11.4331C34.8646 11.9832 35.0572 12.5269 35.3477 13.0329C35.6383 13.5388 36.0208 13.9971 36.4738 14.3816C37.3852 15.1589 38.5274 15.59 39.6491 15.5801C40.7708 15.5702 41.7802 15.1201 42.4551 14.3287L48.5011 19.4851C48.7083 19.6545 48.8841 19.8583 49.0184 20.0847C49.1527 20.3111 49.2428 20.5555 49.2831 20.8034C49.3234 21.0512 49.3133 21.2976 49.2533 21.5279C49.1933 21.7583 49.0847 21.9681 48.9338 22.1448Z" stroke="#F1FFF3" stroke-width="3.625" stroke-linecap="round" stroke-linejoin="round"/>
</svg>
