<svg width="35" height="59" viewBox="0 0 35 59" fill="none" xmlns="http://www.w3.org/2000/svg">
<path d="M3.95149 3.9071L2 21.6478C2.00583 23.061 2.43015 24.4408 3.21951 25.613C4.00888 26.7852 5.12789 27.6973 6.43519 28.2341L5.08222 52.3172C5.05535 53.3663 5.44509 54.3834 6.16611 55.146C6.88713 55.9085 7.88099 56.3546 8.92998 56.3865C9.97897 56.3546 10.9726 55.9085 11.6936 55.146C12.4146 54.3834 12.8043 53.3663 12.7775 52.3172L11.8571 28.2341C13.1652 27.6985 14.2851 26.7868 15.0746 25.6143C15.8642 24.4418 16.2879 23.0614 16.2923 21.6478L14.7068 3.9071M9.12944 4.50587V22.8232M31.8154 27.9015C31.1757 27.9871 30.5918 28.311 30.1806 28.8085C29.7694 29.306 29.5613 29.9404 29.5978 30.5847L30.8176 52.3283C30.8444 53.3774 30.4547 54.3945 29.7337 55.1571C29.0126 55.9196 28.0188 56.3657 26.9698 56.3976C25.9208 56.3657 24.9272 55.9196 24.2062 55.1571C23.4852 54.3945 23.0954 53.3774 23.1223 52.3283L23.9761 29.5647C23.9924 29.1447 23.9256 28.7256 23.779 28.3316C23.6325 27.9377 23.4091 27.5767 23.1223 27.2694V2C23.1223 2 35.8181 2.53221 31.7821 27.9015H31.8154Z" stroke="#F1FFF3" stroke-width="3.32639" stroke-linecap="round" stroke-linejoin="round"/>
</svg>
