<svg width="51" height="54" viewBox="0 0 51 54" fill="none" xmlns="http://www.w3.org/2000/svg">
<path d="M44.6043 29.1557V48.0574C44.6043 48.9276 44.2586 49.7621 43.6433 50.3774C43.028 50.9927 42.1935 51.3384 41.3233 51.3384H9.4546C8.58444 51.3384 7.7499 50.9927 7.1346 50.3774C6.51929 49.7621 6.17367 48.9276 6.17367 48.0574V29.1557M25.389 17.1657C25.389 17.1657 37.3429 16.4781 40.3103 14.1621C41.7268 13.053 42.6472 11.4287 42.8709 9.64352C43.0946 7.85838 42.6035 6.05721 41.5044 4.63282C40.3946 3.21016 38.7665 2.28469 36.9763 2.05866C35.1862 1.83264 33.3795 2.32443 31.9508 3.42658C29.0076 5.74256 25.389 17.1657 25.389 17.1657ZM25.389 17.1657C25.389 17.1657 13.4349 16.4781 10.4676 14.1621C9.0502 13.0531 8.13002 11.4276 7.90847 9.64159C7.68691 7.85557 8.18205 6.05453 9.28551 4.6328C10.3934 3.20741 12.0216 2.27986 13.8127 2.05371C15.6038 1.82756 17.4117 2.32129 18.8391 3.42656C21.7703 5.74254 25.389 17.1657 25.389 17.1657ZM25.389 17.1657V51.3384M5.03972 17.1657H45.7503C47.4291 17.1657 48.79 18.5266 48.79 20.2054V24.7167C48.79 26.3955 47.4291 27.7564 45.7503 27.7564H5.03972C3.36093 27.7564 2 26.3955 2 24.7167V20.2054C2 18.5266 3.36093 17.1657 5.03972 17.1657Z" stroke="#F1FFF3" stroke-width="3.61872" stroke-linecap="round" stroke-linejoin="round"/>
</svg>
