<svg width="37" height="57" viewBox="0 0 37 57" fill="none" xmlns="http://www.w3.org/2000/svg">
<path d="M2.83699 23.5318C2.66077 22.5846 2.5064 21.6044 2.38524 20.6021C1.18469 10.8105 3.32153 2.49468 7.15448 2.02107C10.9874 1.54746 15.0847 9.11424 16.2853 18.9059C16.4175 20.0073 16.5166 21.1638 16.5717 22.2101M3.49782 7.38499L8.289 9.19132M2.05496 13.7512L7.94756 16.3065M7.13251 48.9306H29.5684M18.6092 23.9283C17.823 23.1797 17.197 22.2793 16.7691 21.2815C16.3413 20.2838 16.1204 19.2095 16.12 18.1239C16.12 16.0021 16.9623 13.9671 18.4616 12.4657C19.9609 10.9644 21.9946 10.1194 24.1163 10.1165C26.24 10.1165 28.2767 10.9601 29.7783 12.4618C31.28 13.9635 32.1237 16.0002 32.1237 18.1239C32.1253 19.0198 31.9765 19.9096 31.6832 20.7562M24.1162 12.7709C24.1162 12.7709 23.8739 7.74843 27.6628 5.3253M2.53969 23.9283L4.74253 21.0096C4.90193 20.8017 5.10698 20.6333 5.34191 20.5174C5.57683 20.4015 5.8353 20.3412 6.09725 20.3412C6.35921 20.3412 6.61767 20.4015 6.8526 20.5174C7.08752 20.6333 7.29258 20.8017 7.45198 21.0096L9.48944 23.675C9.56848 23.7799 9.67091 23.8651 9.78846 23.9237C9.90601 23.9823 10.0355 24.0127 10.1668 24.0127C10.2982 24.0127 10.4279 23.9823 10.5454 23.9237C10.663 23.8651 10.7651 23.7799 10.8442 23.675L12.8819 21.0096C13.0413 20.8017 13.2464 20.6333 13.4813 20.5174C13.7162 20.4015 13.9747 20.3412 14.2366 20.3412C14.4986 20.3412 14.7571 20.4015 14.992 20.5174C15.2269 20.6333 15.432 20.8017 15.5914 21.0096C15.5914 21.0096 16.6928 22.4744 17.5299 23.5869C17.6203 23.7056 17.7371 23.8018 17.8708 23.8681C18.0046 23.9343 18.1516 23.9688 18.3008 23.9688C18.45 23.9688 18.5973 23.9343 18.731 23.8681C18.8648 23.8018 18.9816 23.7056 19.072 23.5869L21.0544 21.0316C21.2126 20.8238 21.4167 20.6555 21.6508 20.5395C21.8848 20.4236 22.1425 20.3633 22.4037 20.3633C22.6649 20.3633 22.9226 20.4236 23.1566 20.5395C23.3907 20.6555 23.5948 20.8238 23.7531 21.0316L25.7905 23.6971C25.8707 23.8021 25.9741 23.8872 26.0925 23.9458C26.2109 24.0044 26.3414 24.0349 26.4735 24.0349C26.6057 24.0349 26.7359 24.0044 26.8543 23.9458C26.9727 23.8872 27.0761 23.8021 27.1563 23.6971L29.194 21.0316C29.3523 20.8238 29.5564 20.6555 29.7904 20.5395C30.0245 20.4236 30.2819 20.3633 30.5431 20.3633C30.8042 20.3633 31.062 20.4236 31.296 20.5395C31.53 20.6555 31.7342 20.8238 31.8924 21.0316L34.0953 23.9504C34.4062 24.3675 34.5759 24.873 34.5798 25.3932V52.5652C34.5798 52.9312 34.5077 53.2936 34.3677 53.6316C34.2276 53.9697 34.0225 54.2769 33.7637 54.5357C33.505 54.7944 33.1978 54.9997 32.8597 55.1397C32.5216 55.2797 32.1591 55.3519 31.7932 55.3519H4.7756C4.03846 55.349 3.33229 55.0541 2.81208 54.5318C2.29187 54.0095 1.99999 53.3024 2 52.5652V25.3712C2.01406 24.8435 2.204 24.3357 2.53969 23.9283Z" stroke="#F1FFF3" stroke-width="3.30426" stroke-linecap="round" stroke-linejoin="round"/>
</svg>
