<svg width="40" height="50" viewBox="0 0 40 50" fill="none" xmlns="http://www.w3.org/2000/svg">
<path d="M8.02571 21.525L25.2523 28.255M27.8198 24.217C30.3781 24.6752 32.7109 25.9724 34.4498 27.9039C36.1888 29.8354 37.2348 32.2911 37.4228 34.8832C37.6009 37.5109 36.8887 40.1219 35.4009 42.2951C33.9131 44.4683 31.7365 46.0769 29.2224 46.8615C27.6011 47.3669 25.8886 47.5103 24.2059 47.2817C22.5232 47.053 20.9111 46.4578 19.4835 45.5381M35.7601 30.3136L20.3433 40.7988M25.3788 2.63785C30.1344 4.49872 32.4803 9.86493 30.6183 14.6235L19.861 42.1153C17.999 46.8739 12.6342 49.223 7.87851 47.3621C3.12282 45.5013 0.77696 40.1351 2.63896 35.3765L13.3963 7.88471C15.2583 3.12611 20.6231 0.77699 25.3788 2.63785Z" stroke="#F1FFF3" stroke-width="3.39328" stroke-linecap="round" stroke-linejoin="round"/>
</svg>
