<svg width="45" height="43" viewBox="0 0 45 43" fill="none" xmlns="http://www.w3.org/2000/svg">
<path d="M30.4934 7.50878C30.4934 10.5512 24.1149 13.0176 16.2467 13.0176C8.37846 13.0176 2 10.5512 2 7.50878C2 4.46637 8.37846 2 16.2467 2C24.1149 2 30.4934 4.46637 30.4934 7.50878ZM30.4934 7.50878V15.7765M2.00003 7.51794V16.9185C2.00003 19.9606 8.34394 22.3999 16.2467 22.3999C17.3161 22.3999 18.3492 22.3542 19.3461 22.2628M2.00003 15.7857V26.3282C2.00003 29.3703 8.34394 31.8095 16.2467 31.8095C16.9355 31.8095 17.6061 31.7913 18.2586 31.7547M2.00003 24.4919V35.0801C2.00003 38.1223 8.34394 40.5615 16.2467 40.5615C18.9956 40.5855 21.7364 40.257 24.4032 39.584M27.2942 31.6268C27.2942 32.0511 27.3773 32.4712 27.5387 32.8631C27.7 33.2549 27.9365 33.6108 28.2345 33.9104C28.5325 34.21 28.8861 34.4474 29.2753 34.6089C29.6645 34.7704 30.0815 34.8529 30.5024 34.8517C31.3509 34.8517 32.1646 34.512 32.7646 33.9072C33.3645 33.3024 33.7016 32.4821 33.7016 31.6268C33.6379 31.0248 33.4127 30.4516 33.0502 29.9688C32.6878 29.4859 32.2018 29.1116 31.6443 28.8861C30.0312 27.9726 27.2942 27.6163 27.2942 25.2319C27.293 24.8069 27.3752 24.3858 27.536 23.9929C27.6968 23.6 27.933 23.243 28.2312 22.9425C28.5293 22.6419 28.8835 22.4037 29.2733 22.2416C29.6631 22.0795 30.0808 21.9967 30.5024 21.9979C30.9233 21.9979 31.3401 22.0816 31.7289 22.2442C32.1176 22.4069 32.4707 22.6453 32.7679 22.9457C33.0651 23.2461 33.3004 23.6027 33.4607 23.995C33.6209 24.3873 33.7028 24.8076 33.7016 25.2319M30.4934 21.9339V20.4083M30.4934 36.3682V34.8517M43 28.3928C43 35.3556 37.4006 41 30.4934 41C23.5861 41 17.9867 35.3556 17.9867 28.3928C17.9867 21.4301 23.5861 15.7857 30.4934 15.7857C37.4006 15.7857 43 21.4301 43 28.3928Z" stroke="#F1FFF3" stroke-width="3" stroke-linecap="round" stroke-linejoin="round"/>
</svg>
