<svg width="49" height="49" viewBox="0 0 49 49" fill="none" xmlns="http://www.w3.org/2000/svg">
<path d="M24.4501 9.6V27.43M15.3501 41.17V44.51C15.3501 45.1783 15.0847 45.8193 14.6121 46.2919C14.1395 46.7645 13.4984 47.03 12.8301 47.03H10.1401C9.47179 47.03 8.83075 46.7645 8.35815 46.2919C7.88556 45.8193 7.62012 45.1783 7.62012 44.51V37.51M33.5801 41.17V44.51C33.5801 45.1783 33.8455 45.8193 34.3181 46.2919C34.7907 46.7645 35.4318 47.03 36.1001 47.03H38.79C39.4584 47.03 40.0994 46.7645 40.572 46.2919C41.0446 45.8193 41.3101 45.1783 41.3101 44.51V37.51M20.7701 36.81H28.1201M11.7801 31.45C11.7801 31.45 11.5001 35.09 15.5201 34.61M37.1101 31.45C37.1101 31.45 37.3901 35.09 33.3701 34.61M41.3501 12.54H44.04C44.4204 12.54 44.7972 12.6151 45.1484 12.761C45.4997 12.9068 45.8187 13.1206 46.0872 13.39C46.3557 13.6594 46.5682 13.9792 46.7129 14.331C46.8575 14.6827 46.9315 15.0597 46.9302 15.44V19.98M7.5801 12.54H4.89015C4.50979 12.54 4.13304 12.6151 3.78176 12.761C3.43047 12.9068 3.11153 13.1206 2.84303 13.39C2.57454 13.6594 2.36195 13.9792 2.2173 14.331C2.07266 14.6827 1.9987 15.0597 2.00002 15.44V19.98M11.4201 2H37.4801C39.6009 2 41.3201 3.71923 41.3201 5.84V37.34C41.3201 39.4608 39.6009 41.18 37.4801 41.18H11.4201C9.29932 41.18 7.5801 39.4608 7.5801 37.34V5.84C7.5801 3.71923 9.29932 2 11.4201 2ZM11.2901 9.6H37.6001C38.5841 9.6 39.5277 9.99087 40.2235 10.6866C40.9192 11.3824 41.3101 12.326 41.3101 13.31V27.43H7.5801V13.31C7.5801 12.326 7.97097 11.3824 8.66673 10.6866C9.36249 9.99087 10.3061 9.6 11.2901 9.6Z" stroke="#F1FFF3" stroke-width="3" stroke-linecap="round" stroke-linejoin="round"/>
</svg>
